<?xml version="1.0" encoding="iso-8859-1"?>
<!-- Generator: Adobe Illustrator 19.0.0, SVG Export Plug-In . SVG Version: 6.00 Build 0)  -->
<svg version="1.1" id="Layer_1" xmlns="http://www.w3.org/2000/svg" xmlns:xlink="http://www.w3.org/1999/xlink" x="0px" y="0px"
	 viewBox="0 0 512 512" style="enable-background:new 0 0 512 512;" xml:space="preserve">
<g>
	<g>
		<path d="M307.2,149.333h-8.55c0-1.169,0.009-2.338,0.009-3.465l0.009-5.069c0-23.526-19.14-42.667-42.667-42.667
			c-23.526,0-42.667,19.14-42.667,42.667v8.533H204.8c-14.114,0-25.6,11.486-25.6,25.6v51.2c0,14.114,11.486,25.6,25.6,25.6h102.4
			c14.114,0,25.6-11.486,25.6-25.6v-51.2C332.8,160.819,321.314,149.333,307.2,149.333z M230.4,140.8
			c0-14.114,11.486-25.6,25.6-25.6s25.6,11.486,25.6,25.6l-0.009,5.026c-0.009,1.135-0.009,2.321-0.009,3.507H230.4V140.8z
			 M315.733,226.133c0,4.702-3.823,8.533-8.533,8.533H204.8c-4.71,0-8.533-3.831-8.533-8.533v-51.2c0-4.702,3.823-8.533,8.533-8.533
			h102.4c4.71,0,8.533,3.831,8.533,8.533V226.133z"/>
	</g>
</g>
<g>
	<g>
		<path d="M264.533,183.467h-17.067c-4.719,0-8.533,3.823-8.533,8.533s3.814,8.533,8.533,8.533v8.533
			c0,4.71,3.814,8.533,8.533,8.533s8.533-3.823,8.533-8.533v-8.533c4.719,0,8.533-3.823,8.533-8.533
			S269.252,183.467,264.533,183.467z"/>
	</g>
</g>
<g>
	<g>
		<path d="M486.4,115.2H364.083C341.376,79.369,301.474,55.467,256,55.467S170.624,79.369,147.917,115.2H25.6
			C11.486,115.2,0,126.686,0,140.8v290.133c0,14.114,11.486,25.6,25.6,25.6h460.8c14.114,0,25.6-11.486,25.6-25.6V140.8
			C512,126.686,500.514,115.2,486.4,115.2z M256,72.533c61.167,0,110.933,49.766,110.933,110.933S317.167,294.4,256,294.4
			s-110.933-49.766-110.933-110.933S194.833,72.533,256,72.533z M17.067,140.8c0-4.702,3.823-8.533,8.533-8.533h113.161
			c-3.567,8.141-6.366,16.691-8.183,25.6H17.067V140.8z M17.067,174.933h111.369c-0.188,2.833-0.435,5.649-0.435,8.533
			c0,14.976,2.722,29.295,7.467,42.667h-118.4V174.933z M494.933,430.933c0,4.702-3.823,8.533-8.533,8.533H25.6
			c-4.71,0-8.533-3.831-8.533-8.533V243.2h125.815c21.504,40.55,64.111,68.267,113.118,68.267
			c49.007,0,91.622-27.716,113.118-68.267h125.815V430.933z M494.933,226.133h-118.4c4.745-13.372,7.467-27.691,7.467-42.667
			c0-2.884-0.247-5.7-0.435-8.533h111.369V226.133z M494.933,157.867h-113.51c-1.818-8.909-4.608-17.459-8.183-25.6H486.4
			c4.71,0,8.533,3.831,8.533,8.533V157.867z"/>
	</g>
</g>
<g>
	<g>
		<path d="M426.667,328.533c-11.273,0-21.982,4.506-29.867,12.211c-7.885-7.706-18.594-12.211-29.867-12.211
			c-23.526,0-42.667,19.14-42.667,42.667s19.14,42.667,42.667,42.667c11.273,0,21.982-4.506,29.867-12.211
			c7.885,7.706,18.594,12.211,29.867,12.211c23.526,0,42.667-19.14,42.667-42.667S450.193,328.533,426.667,328.533z M426.667,396.8
			c-9.114,0-17.613-4.907-22.187-12.809c-1.527-2.645-4.924-4.258-7.979-4.258c-0.043,0-0.085,0-0.119,0
			c-3.012,0.043-5.769,1.664-7.27,4.267c-4.565,7.893-13.065,12.8-22.178,12.8c-14.114,0-25.6-11.486-25.6-25.6
			s11.486-25.6,25.6-25.6c9.105,0,17.604,4.907,22.178,12.8c1.604,2.773,4.634,4.241,7.509,4.258
			c3.106,0.213,6.212-1.365,7.868-4.25c4.565-7.893,13.065-12.8,22.187-12.8c14.114,0,25.6,11.486,25.6,25.6
			S440.781,396.8,426.667,396.8z"/>
	</g>
</g>
<g>
	<g>
		<path d="M281.6,345.6h-85.333c-4.719,0-8.533,3.823-8.533,8.533v34.133c0,4.71,3.814,8.533,8.533,8.533H281.6
			c4.719,0,8.533-3.823,8.533-8.533v-34.133C290.133,349.423,286.319,345.6,281.6,345.6z M273.067,379.733H204.8v-17.067h68.267
			V379.733z"/>
	</g>
</g>
<g>
	<g>
		<path d="M145.067,345.6H59.733c-4.719,0-8.533,3.823-8.533,8.533v34.133c0,4.71,3.814,8.533,8.533,8.533h85.333
			c4.719,0,8.533-3.823,8.533-8.533v-34.133C153.6,349.423,149.786,345.6,145.067,345.6z M136.533,379.733H68.267v-17.067h68.267
			V379.733z"/>
	</g>
</g>
<g>
</g>
<g>
</g>
<g>
</g>
<g>
</g>
<g>
</g>
<g>
</g>
<g>
</g>
<g>
</g>
<g>
</g>
<g>
</g>
<g>
</g>
<g>
</g>
<g>
</g>
<g>
</g>
<g>
</g>
</svg>
